<?xml version="1.0" standalone="no"?>
<!DOCTYPE svg PUBLIC "-//W3C//DTD SVG 20010904//EN"
 "http://www.w3.org/TR/2001/REC-SVG-20010904/DTD/svg10.dtd">
<svg version="1.0" xmlns="http://www.w3.org/2000/svg"
 width="666.000000pt" height="666.000000pt" viewBox="0 0 666.000000 666.000000"
 preserveAspectRatio="xMidYMid meet">
<metadata>
Created by potrace 1.14, written by Peter Selinger 2001-2017
</metadata>
<g transform="translate(0.000000,666.000000) scale(0.100000,-0.100000)"
fill="#000000" stroke="none">
<path d="M4224 4589 c-11 -4 -25 -13 -31 -20 -11 -14 -18 -84 -38 -414 -4 -60
-9 -123 -11 -140 -2 -16 -6 -95 -10 -175 -4 -80 -7 -146 -9 -148 -1 -1 -17 5
-35 15 -50 24 -165 29 -234 9 -69 -20 -134 -76 -167 -144 -19 -39 -23 -63 -23
-147 0 -84 4 -108 24 -148 25 -54 63 -88 127 -117 57 -25 169 -21 236 9 58 25
57 25 57 6 0 -34 102 -43 129 -12 5 7 13 62 16 122 3 61 7 144 10 185 4 69 10
179 20 370 2 41 7 127 11 190 3 63 7 138 9 165 1 28 6 106 10 175 13 198 12
206 -17 216 -32 11 -52 12 -74 3z m-173 -964 c35 -28 53 -86 52 -171 -1 -151
-94 -262 -197 -233 -66 18 -114 141 -97 249 21 132 110 218 191 185 14 -5 37
-19 51 -30z"/>
<path d="M540 4268 c-164 -28 -263 -196 -350 -595 -9 -37 -17 -53 -28 -54 -62
-3 -112 -25 -112 -49 0 -21 38 -42 79 -44 35 -1 35 -3 22 -87 -5 -31 -12 -96
-16 -145 -3 -49 -8 -106 -11 -126 -4 -30 -1 -39 18 -52 26 -18 70 -21 98 -6
21 11 27 35 36 160 3 47 7 94 9 105 13 113 19 146 25 150 4 3 45 7 91 10 87 5
175 12 290 20 64 5 67 4 71 -18 3 -13 4 -140 3 -281 -1 -240 0 -258 17 -270
35 -25 111 -3 121 34 9 35 6 651 -3 702 -5 25 -11 66 -14 89 -40 334 -158 490
-346 457z m104 -112 c26 -36 53 -122 71 -226 3 -19 10 -53 15 -75 4 -22 11
-74 15 -115 4 -41 9 -78 12 -82 2 -5 -6 -9 -19 -9 -13 -1 -36 -2 -53 -4 -93
-7 -267 -18 -310 -19 -58 -1 -58 -3 -32 109 37 160 111 339 170 411 50 61 92
64 131 10z"/>
<path d="M4570 4263 c-48 -18 -73 -66 -60 -115 17 -60 91 -82 133 -40 23 24
28 84 10 119 -21 41 -43 51 -83 36z"/>
<path d="M6305 4029 c-84 -42 -135 -119 -135 -205 0 -70 38 -126 131 -194 87
-64 115 -93 135 -140 40 -92 8 -235 -68 -303 -38 -34 -47 -38 -81 -34 -83 11
-113 83 -82 199 6 23 3 29 -22 41 -37 18 -82 13 -107 -13 -18 -18 -21 -33 -21
-103 1 -103 17 -137 82 -168 65 -31 203 -36 283 -9 67 23 139 95 160 161 28
88 20 229 -16 307 -15 33 -80 86 -167 135 -59 35 -79 64 -79 119 0 51 16 95
44 126 30 31 48 28 81 -13 29 -36 54 -43 88 -25 44 24 11 87 -65 121 -53 24
-111 23 -161 -2z"/>
<path d="M2378 4000 c-73 -23 -112 -51 -144 -106 -30 -52 -25 -66 27 -66 72
-1 75 0 98 52 25 55 47 72 97 73 85 2 127 -69 151 -263 3 -25 6 -49 7 -55 0
-5 -33 -10 -79 -10 -124 -2 -184 -21 -238 -77 -41 -42 -58 -91 -58 -162 0 -73
12 -117 46 -167 47 -72 161 -104 261 -74 40 12 45 12 40 -2 -23 -59 -13 -82
41 -87 51 -4 79 12 91 52 24 84 35 197 36 362 0 229 -14 332 -57 415 -55 108
-187 156 -319 115z m184 -460 c91 -71 28 -329 -80 -332 -61 -2 -94 56 -93 162
1 101 24 149 86 176 41 18 58 17 87 -6z"/>
<path d="M5577 4008 c-79 -17 -150 -70 -180 -136 -13 -28 -1 -42 39 -44 74 -3
80 0 99 47 21 55 52 78 107 78 34 0 47 -6 69 -31 34 -38 65 -133 73 -227 l6
-71 -92 0 c-150 -1 -232 -49 -268 -155 -46 -135 15 -286 131 -324 52 -18 141
-15 178 5 28 15 33 12 21 -9 -14 -28 -12 -56 5 -71 21 -17 92 -17 110 1 15 15
39 116 50 209 9 80 10 324 1 405 -11 99 -51 213 -89 253 -62 64 -163 91 -260
70z m179 -483 c23 -29 24 -34 24 -122 1 -67 -28 -140 -68 -176 -27 -25 -89
-25 -108 0 -36 45 -51 147 -32 221 25 99 131 143 184 77z"/>
<path d="M1143 3989 c-21 -6 -33 -16 -33 -27 -4 -120 4 -732 9 -790 3 -31 99
-47 126 -21 6 6 10 129 10 327 0 302 1 319 21 352 45 77 123 77 161 0 35 -72
43 -148 48 -449 2 -192 5 -215 21 -232 37 -36 119 -27 129 14 7 29 -2 462 -10
507 -4 19 -10 53 -15 75 -8 36 -6 43 17 68 32 32 100 67 132 67 58 0 119 -72
136 -160 13 -64 12 -281 -1 -357 -8 -42 -16 -94 -20 -116 -3 -23 -16 -74 -29
-114 l-23 -73 21 -15 c30 -21 90 -19 111 4 15 17 49 118 61 181 2 14 7 36 10
50 20 100 28 325 14 415 -20 126 -87 221 -174 245 -69 19 -162 8 -241 -29
l-68 -32 -23 30 c-32 41 -109 65 -185 58 -32 -3 -66 -11 -74 -18 -13 -11 -19
-8 -37 13 -27 32 -52 39 -94 27z"/>
<path d="M2975 3992 c-43 -9 -43 -6 -41 -418 2 -380 3 -395 22 -415 19 -18 42
-24 90 -20 23 1 43 36 37 66 -2 11 -4 147 -4 301 -1 308 -1 306 61 361 65 59
134 -7 155 -147 10 -70 14 -149 16 -341 1 -107 6 -205 10 -217 15 -40 112 -48
134 -12 13 21 5 376 -10 485 -24 169 -74 268 -155 310 -49 25 -128 30 -175 11
-31 -13 -40 -14 -47 -4 -19 32 -25 37 -48 41 -14 2 -34 2 -45 -1z"/>
<path d="M5070 3977 c-102 -34 -174 -128 -206 -266 -14 -58 -13 -247 1 -312
41 -198 163 -301 317 -267 24 5 54 18 68 29 25 19 25 19 5 35 -15 12 -35 14
-81 11 -55 -5 -63 -3 -89 20 -123 115 -123 551 0 666 37 34 69 41 105 22 37
-19 84 -19 100 0 39 47 -125 94 -220 62z"/>
<path d="M4543 3948 c-18 -4 -34 -12 -37 -16 -7 -11 -18 -120 -31 -317 -3 -44
-8 -107 -10 -140 -2 -33 -7 -100 -10 -150 -3 -49 -8 -109 -10 -131 -2 -23 1
-49 8 -58 13 -17 67 -24 104 -12 27 9 30 19 38 136 3 52 8 118 10 145 2 28 7
95 10 150 4 55 8 123 10 150 17 220 17 221 2 234 -21 17 -47 20 -84 9z"/>
<path d="M2320 2885 c-1 -3 -1 -41 -1 -85 0 -44 0 -111 1 -150 l0 -70 39 0 38
0 1 155 0 155 -39 0 c-21 0 -39 -2 -39 -5z"/>
<path d="M4538 2828 c-2 -35 -2 -105 0 -156 l3 -93 37 3 37 3 2 153 1 152 -38
0 -39 0 -3 -62z"/>
<path d="M2049 2868 c-1 -5 -1 -251 0 -270 1 -16 12 -18 76 -18 85 0 125 15
143 54 13 29 8 51 -21 84 -11 12 -16 22 -10 22 6 0 16 13 22 28 16 37 0 79
-34 92 -22 9 -174 15 -176 8z m134 -70 c7 -23 -4 -38 -29 -38 -19 0 -24 5 -24
25 0 20 5 25 24 25 13 0 26 -6 29 -12z m2 -128 c0 -21 -5 -25 -29 -25 -25 0
-29 4 -30 28 -2 25 1 28 29 25 25 -2 30 -7 30 -28z"/>
<path d="M3073 2725 l1 -146 40 3 40 3 0 47 c0 46 0 47 31 46 17 -1 41 4 53
11 54 29 64 118 17 158 -22 20 -37 23 -104 23 l-78 0 0 -145z m124 72 c21 -13
-4 -56 -33 -57 -11 0 -17 47 -8 62 5 8 24 5 41 -5z"/>
<path d="M2503 2800 c-52 -21 -75 -113 -44 -171 29 -54 109 -70 166 -33 66 43
52 177 -21 204 -31 12 -71 12 -101 0z m78 -71 c22 -42 -13 -122 -41 -93 -14
15 -20 64 -10 90 12 30 35 31 51 3z"/>
<path d="M2760 2803 c-48 -18 -66 -77 -36 -118 12 -17 12 -22 0 -39 -9 -14
-10 -23 -3 -32 7 -9 5 -18 -10 -33 -24 -24 -23 -51 4 -81 14 -15 30 -20 73
-20 92 0 145 39 135 100 -5 35 -30 50 -84 50 -62 0 -71 16 -15 24 52 8 79 35
78 76 0 17 6 33 15 39 9 5 14 15 11 23 -4 10 -26 14 -79 15 -41 1 -81 -1 -89
-4z m68 -72 c-2 -18 -9 -26 -22 -26 -22 0 -31 32 -15 52 17 20 40 3 37 -26z
m22 -175 c0 -16 -21 -26 -55 -26 -26 0 -40 14 -30 30 10 16 85 13 85 -4z"/>
<path d="M3380 2801 c-49 -13 -76 -113 -47 -171 22 -44 96 -67 160 -49 26 7
33 14 32 32 -2 20 -6 22 -49 19 -44 -4 -76 9 -76 29 0 5 32 9 71 9 l71 0 -6
43 c-3 23 -5 45 -5 50 -1 4 -16 16 -33 27 -33 20 -72 24 -118 11z m78 -53 c20
-20 14 -28 -23 -28 -38 0 -46 13 -17 29 22 13 26 13 40 -1z"/>
<path d="M3624 2804 c-12 -3 -27 -16 -34 -30 -20 -36 -3 -75 44 -99 22 -11 41
-26 44 -33 5 -15 -36 -16 -72 -2 -24 9 -26 8 -26 -21 0 -32 10 -39 56 -41 86
-4 124 18 124 70 0 31 -17 51 -67 76 -59 30 -35 45 31 20 11 -4 17 2 22 21 3
14 4 28 2 31 -8 7 -100 13 -124 8z"/>
<path d="M3828 2790 c-17 -13 -28 -31 -28 -46 0 -30 38 -71 74 -80 14 -3 26
-10 26 -15 0 -17 -27 -21 -64 -11 -35 10 -36 10 -36 -19 0 -36 16 -44 84 -43
41 1 54 6 73 28 13 15 23 36 23 47 0 25 -41 66 -74 75 -14 3 -26 13 -26 21 0
15 20 14 63 -3 17 -6 32 35 17 50 -5 5 -30 11 -57 13 -39 4 -53 1 -75 -17z"/>
<path d="M4075 2801 c-54 -23 -81 -112 -50 -171 39 -76 161 -72 203 7 51 95
-52 205 -153 164z m76 -72 c14 -27 3 -88 -17 -96 -21 -8 -34 8 -41 50 -9 58
33 92 58 46z"/>
<path d="M4330 2801 c-15 -4 -26 -15 -28 -29 -4 -27 16 -36 49 -23 27 10 59
-2 59 -21 0 -6 -2 -9 -5 -6 -10 10 -98 -12 -117 -29 -23 -21 -23 -65 1 -94 22
-28 82 -30 110 -5 17 15 19 15 24 1 4 -8 18 -15 35 -15 l28 0 1 73 c2 90 -10
131 -43 146 -27 12 -74 13 -114 2z m80 -135 c0 -20 -27 -39 -45 -32 -18 7 -20
32 -2 39 24 10 47 7 47 -7z"/>
</g>
</svg>
